<svg width="448" height="448" viewBox="0 0 448 448" fill="none" xmlns="http://www.w3.org/2000/svg">
<path d="M448 48V400C448 426.5 426.5 448 400 448H154.4C164.2 431.6 176.8 408 181.8 388.7C184.8 377.2 197.1 330.3 197.1 330.3C205.1 345.6 228.5 358.5 253.4 358.5C327.5 358.5 380.8 290.4 380.8 205.8C380.8 124.7 314.6 64 229.4 64C123.4 64 67.2 135.1 67.2 212.6C67.2 248.6 86.4 293.4 117 307.7C121.7 309.9 124.1 308.9 125.2 304.4C126 301 130.2 284.3 132 276.6C132.6 274.1 132.3 272 130.3 269.6C120.2 257.3 112 234.7 112 213.6C112 159.4 153 107 222.9 107C283.2 107 325.5 148.1 325.5 206.9C325.5 273.3 292 319.3 248.3 319.3C224.2 319.3 206.2 299.4 211.9 274.9C218.8 245.7 232.2 214.2 232.2 193.1C232.2 140.1 156.7 147.4 156.7 218.1C156.7 239.8 164 254.6 164 254.6C132.6 387.4 127.9 389.1 134.4 447.2L136.6 448H48C21.5 448 0 426.5 0 400V48C0 21.5 21.5 0 48 0H400C426.5 0 448 21.5 448 48Z" fill="white"/>
</svg>
